<?xml version="1.0" standalone="no"?><!DOCTYPE svg PUBLIC "-//W3C//DTD SVG 1.1//EN" "http://www.w3.org/Graphics/SVG/1.1/DTD/svg11.dtd"><svg t="1612353603103" class="icon" viewBox="0 0 1024 1024" version="1.1" xmlns="http://www.w3.org/2000/svg" p-id="1179" xmlns:xlink="http://www.w3.org/1999/xlink" width="200" height="200"><defs><style type="text/css"></style></defs><path d="M536.2944 527.232a25.6 25.6 0 0 0 0-42.5984L219.008 273.1008A25.6 25.6 0 0 0 179.2 294.4v423.0656a25.6 25.6 0 0 0 39.808 21.2992L536.2816 527.232z m-288.896 254.1312A76.8 76.8 0 0 1 128 717.4656V294.4a76.8 76.8 0 0 1 119.3984-63.8976l317.312 211.5328a76.8 76.8 0 0 1 0 127.7952l-317.312 211.5328z" fill="#000000" p-id="1180"></path><path d="M524.8 329.8944V294.4a25.6 25.6 0 0 1 39.808-21.2992l317.2864 211.5328a25.6 25.6 0 0 1 0 42.5984L564.608 738.7648A25.6 25.6 0 0 1 524.8 717.4656V687.104a25.6 25.6 0 1 0-51.2 0v30.336a76.8 76.8 0 0 0 119.3984 63.9104l317.312-211.5328a76.8 76.8 0 0 0 0-127.7952l-317.312-211.5328A76.8 76.8 0 0 0 473.6 294.4v35.4944a25.6 25.6 0 1 0 51.2 0z" fill="#000000" p-id="1181"></path></svg>