<?xml version="1.0" standalone="no"?><!DOCTYPE svg PUBLIC "-//W3C//DTD SVG 1.1//EN" "http://www.w3.org/Graphics/SVG/1.1/DTD/svg11.dtd"><svg t="1614173173251" class="icon" viewBox="0 0 1024 1024" version="1.1" xmlns="http://www.w3.org/2000/svg" p-id="24090" xmlns:xlink="http://www.w3.org/1999/xlink" width="200" height="200"><defs><style type="text/css"></style></defs><path d="M273.728 852.368H196.16a65.616 65.616 0 0 1-65.472-65.568v-345.6A65.568 65.568 0 0 1 196.16 375.68h93.408a31.872 31.872 0 0 1 31.824 33.024L305.6 821.84a31.872 31.872 0 0 1-31.776 30.528zM220.112 439.232a25.92 25.92 0 0 0-25.872 25.824v297.84a25.968 25.968 0 0 0 25.872 25.872 24 24 0 0 0 24-22.992L255.632 464a24 24 0 0 0-24-24.816z m-24 0M734.288 852.368H405.776a67.2 67.2 0 0 1-67.2-69.696l13.152-342.432a67.2 67.2 0 0 1 67.2-64.56H435.2a9.6 9.6 0 0 0 8.928-6.288l51.36-144a108.768 108.768 0 0 1 210.048 51.984l-12.528 87.456a9.6 9.6 0 0 0 9.6 10.848h95.232a95.568 95.568 0 0 1 95.472 94.848 5.856 5.856 0 0 1 0 1.296l-0.624 5.76v1.056l-62.4 281.328a7.392 7.392 0 0 0 0 1.44 95.568 95.568 0 0 1-95.376 90.96z m-329.568-133.296a67.2 67.2 0 0 0 67.2 69.696h262.512A31.968 31.968 0 0 0 766.4 756.8l0.72-6.384v-1.056l62.4-279.408a9.024 9.024 0 0 0 0-3.408 32.016 32.016 0 0 0-31.584-27.312h-168.576a9.6 9.6 0 0 1-9.6-10.848l22.848-159.984a45.072 45.072 0 0 0-44.736-51.552 45.216 45.216 0 0 0-42.528 30L489.056 432.896a9.6 9.6 0 0 1-8.976 6.336 67.2 67.2 0 0 0-67.2 64.512z m-2.688 69.696" fill="#f4ea2a" p-id="24091"></path></svg>