<?xml version="1.0" standalone="no"?><!DOCTYPE svg PUBLIC "-//W3C//DTD SVG 1.1//EN" "http://www.w3.org/Graphics/SVG/1.1/DTD/svg11.dtd"><svg t="1612354557626" class="icon" viewBox="0 0 1024 1024" version="1.1" xmlns="http://www.w3.org/2000/svg" p-id="1458" xmlns:xlink="http://www.w3.org/1999/xlink" width="200" height="200"><defs><style type="text/css"></style></defs><path d="M512 512m-512 0a512 512 0 1 0 1024 0 512 512 0 1 0-1024 0Z" fill="#000000" p-id="1459"></path><path d="M307.2 307.2m19.2 0l371.2 0q19.2 0 19.2 19.2l0 0q0 19.2-19.2 19.2l-371.2 0q-19.2 0-19.2-19.2l0 0q0-19.2 19.2-19.2Z" fill="#FFFFFF" p-id="1460"></path><path d="M307.2 486.4m19.2 0l371.2 0q19.2 0 19.2 19.2l0 0q0 19.2-19.2 19.2l-371.2 0q-19.2 0-19.2-19.2l0 0q0-19.2 19.2-19.2Z" fill="#FFFFFF" p-id="1461"></path><path d="M307.2 665.6m19.2 0l217.6 0q19.2 0 19.2 19.2l0 0q0 19.2-19.2 19.2l-217.6 0q-19.2 0-19.2-19.2l0 0q0-19.2 19.2-19.2Z" fill="#FFFFFF" p-id="1462"></path><path d="M665.6 591.8336a44.8 44.8 0 0 0-44.8 44.8v109.1328a44.8 44.8 0 0 0 69.6448 37.2736l81.856-54.5664a44.8 44.8 0 0 0 0-74.5472l-81.856-54.5664A44.8 44.8 0 0 0 665.6 591.8336z m0 38.4a6.4 6.4 0 0 1 3.5456 1.0752l81.856 54.5664a6.4 6.4 0 0 1 0 10.6496l-81.856 54.5664a6.4 6.4 0 0 1-9.9456-5.3248v-109.1328a6.4 6.4 0 0 1 6.4-6.4z" fill="#FFFFFF" p-id="1463"></path></svg>